<svg width="1294" height="891" viewBox="0 0 1294 891" fill="none" xmlns="http://www.w3.org/2000/svg">
<path d="M866.007 865.452H862.489L790.781 794.916V827.027C790.781 832.439 790.811 837.159 790.872 841.188C790.932 845.217 791.022 848.705 791.142 851.651C791.323 854.538 791.533 856.973 791.774 858.957C792.074 860.942 792.435 862.565 792.856 863.828V864.189H779.326V863.828C779.747 862.565 780.108 860.942 780.409 858.957C780.709 856.973 780.95 854.538 781.13 851.651C781.311 848.705 781.431 845.217 781.491 841.188C781.551 837.159 781.581 832.439 781.581 827.027V804.297C781.581 798.885 781.551 794.195 781.491 790.226C781.431 786.197 781.311 782.739 781.13 779.853C780.95 776.907 780.709 774.441 780.409 772.457C780.108 770.472 779.747 768.849 779.326 767.586V767.225H784.918L856.717 838.121V804.297C856.717 798.885 856.687 794.195 856.626 790.226C856.566 786.197 856.446 782.739 856.266 779.853C856.145 776.907 855.965 774.441 855.725 772.457C855.484 770.472 855.153 768.849 854.732 767.586V767.225H868.172V767.586C867.751 768.849 867.39 770.472 867.09 772.457C866.849 774.441 866.639 776.907 866.458 779.853C866.278 782.739 866.157 786.197 866.097 790.226C866.037 794.195 866.007 798.885 866.007 804.297V865.452Z" fill="#251725"/>
<path d="M895.232 804.297C895.232 798.885 895.171 794.195 895.051 790.226C894.931 786.197 894.75 782.739 894.51 779.853C894.33 776.907 894.059 774.441 893.698 772.457C893.398 770.472 893.037 768.849 892.616 767.586V767.225H913.542V767.586C913.121 768.849 912.73 770.472 912.369 772.457C912.069 774.441 911.798 776.907 911.558 779.853C911.377 782.739 911.227 786.197 911.107 790.226C910.986 794.195 910.926 798.885 910.926 804.297V827.027C910.926 832.439 910.986 837.159 911.107 841.188C911.227 845.217 911.377 848.705 911.558 851.651C911.798 854.538 912.069 856.973 912.369 858.957C912.73 860.942 913.121 862.565 913.542 863.828V864.189H892.616V863.828C893.037 862.565 893.398 860.942 893.698 858.957C894.059 856.973 894.33 854.538 894.51 851.651C894.75 848.705 894.931 845.217 895.051 841.188C895.171 837.159 895.232 832.439 895.232 827.027V804.297Z" fill="#251725"/>
<path d="M1027.28 853.275C1027.28 854.057 1027.19 854.718 1027.01 855.259C1026.89 855.8 1026.56 856.251 1026.02 856.612C1021.75 859.619 1016.76 862.024 1011.05 863.828C1005.39 865.572 998.75 866.444 991.113 866.444C982.514 866.444 974.667 865.211 967.571 862.746C960.535 860.28 954.492 856.853 949.441 852.463C944.39 848.013 940.451 842.692 937.625 836.498C934.859 830.304 933.476 823.449 933.476 815.933C933.476 809.498 934.739 803.245 937.264 797.171C939.85 791.098 943.548 785.716 948.359 781.026C953.169 776.335 959.002 772.577 965.857 769.751C972.772 766.925 980.56 765.511 989.219 765.511C993.729 765.511 997.998 765.782 1002.03 766.323C1006.06 766.804 1009.93 767.586 1013.66 768.668L1020.43 784.904L1019.53 785.536C1015.92 781.386 1011.56 778.109 1006.45 775.704C1001.34 773.238 995.472 772.006 988.858 772.006C983.446 772.006 978.455 772.878 973.885 774.622C969.375 776.365 965.436 778.921 962.069 782.288C958.762 785.596 956.176 789.685 954.312 794.555C952.448 799.426 951.516 804.958 951.516 811.152C951.516 818.127 952.387 824.592 954.131 830.545C955.875 836.498 958.491 841.669 961.979 846.059C965.466 850.388 969.766 853.786 974.877 856.251C980.048 858.717 986.062 859.95 992.917 859.95C998.81 859.95 1003.38 859.198 1006.63 857.695C1009.93 856.191 1011.59 854.477 1011.59 852.553V847.773C1011.59 844.646 1011.56 841.94 1011.5 839.655C1011.44 837.37 1011.35 835.415 1011.23 833.792C1011.11 832.108 1010.93 830.665 1010.69 829.462C1010.51 828.26 1010.27 827.147 1009.96 826.125V825.764H1029.18V826.125C1028.88 827.027 1028.61 828.109 1028.36 829.372C1028.12 830.635 1027.91 832.138 1027.73 833.882C1027.61 835.626 1027.49 837.67 1027.37 840.016C1027.31 842.361 1027.28 845.067 1027.28 848.134V853.275Z" fill="#251725"/>
<path d="M1041.62 863.828C1042.41 862.986 1043.19 861.453 1043.97 859.228C1044.81 857.003 1045.47 854.598 1045.95 852.012C1046.68 847.803 1047.46 843.022 1048.3 837.67C1049.2 832.259 1050.07 826.696 1050.91 820.984C1051.82 815.271 1052.69 809.589 1053.53 803.936C1054.37 798.224 1055.15 792.932 1055.88 788.061C1056.6 783.19 1057.2 778.921 1057.68 775.253C1058.16 771.585 1058.49 768.909 1058.67 767.225H1069.41L1112.43 844.255L1156.54 767.225H1165.29L1176.11 842.541C1176.65 845.969 1177.16 848.885 1177.64 851.29C1178.18 853.696 1178.7 855.74 1179.18 857.424C1179.66 859.048 1180.14 860.37 1180.62 861.393C1181.1 862.415 1181.52 863.227 1181.88 863.828V864.189H1159.69V863.828C1159.87 863.347 1160.09 862.535 1160.33 861.393C1160.63 860.25 1160.78 858.897 1160.78 857.334C1160.78 856.312 1160.69 854.838 1160.51 852.914C1160.39 850.99 1160.18 849.096 1159.87 847.232L1152.12 791.94L1111.08 864.008L1104.67 863.107L1064.35 791.399C1062.85 801.501 1061.53 810.851 1060.39 819.45C1059.9 823.118 1059.42 826.786 1058.94 830.455C1058.46 834.123 1058.04 837.58 1057.68 840.827C1057.32 844.014 1057.02 846.841 1056.78 849.306C1056.54 851.772 1056.42 853.606 1056.42 854.808C1056.42 856.312 1056.45 857.634 1056.51 858.777C1056.57 859.859 1056.66 860.821 1056.78 861.663C1056.9 862.625 1057.02 863.467 1057.14 864.189H1041.62V863.828Z" fill="#251725"/>
<path d="M1260 833.702C1258.37 833.702 1256.33 833.702 1253.86 833.702C1251.46 833.702 1248.81 833.702 1245.92 833.702C1243.04 833.702 1240.06 833.702 1236.99 833.702C1233.93 833.702 1231.01 833.732 1228.25 833.792C1225.48 833.792 1222.95 833.822 1220.67 833.882C1218.38 833.882 1216.61 833.882 1215.35 833.882L1212.01 840.918C1210.57 843.804 1209.33 846.33 1208.31 848.494C1207.29 850.599 1206.45 852.463 1205.79 854.087C1205.12 855.71 1204.64 857.123 1204.34 858.326C1204.04 859.468 1203.89 860.551 1203.89 861.573C1203.89 862.235 1203.92 862.746 1203.98 863.107C1204.04 863.407 1204.13 863.648 1204.25 863.828V864.189H1188.38V863.828C1188.8 863.407 1189.46 862.505 1190.36 861.122C1191.26 859.679 1192.29 857.935 1193.43 855.891C1194.63 853.846 1195.89 851.531 1197.22 848.945C1198.6 846.36 1199.95 843.684 1201.28 840.918L1238.08 764.97H1244.84L1280.92 840.918C1282.3 843.804 1283.69 846.57 1285.07 849.216C1286.51 851.862 1287.84 854.237 1289.04 856.342C1290.24 858.386 1291.29 860.1 1292.2 861.483C1293.1 862.806 1293.7 863.588 1294 863.828V864.189H1270.91C1271.03 863.708 1271.09 863.287 1271.09 862.926C1271.09 862.505 1271.09 862.054 1271.09 861.573C1271.09 860.25 1270.79 858.657 1270.19 856.793C1269.65 854.928 1268.95 853.034 1268.11 851.11C1267.33 849.126 1266.49 847.232 1265.59 845.428C1264.75 843.624 1264.05 842.12 1263.51 840.918L1260 833.702ZM1218.86 826.666H1224.37C1226.89 826.666 1229.57 826.666 1232.39 826.666C1235.28 826.606 1238.17 826.576 1241.05 826.576C1243.94 826.576 1246.74 826.576 1249.44 826.576C1252.15 826.516 1254.58 826.486 1256.75 826.486L1238.08 786.618L1218.86 826.666Z" fill="#251725"/>
<path d="M165.669 820.262C166.872 820.442 168.045 820.623 169.187 820.803C170.39 820.924 171.562 820.984 172.705 820.984C176.132 820.984 179.259 820.473 182.086 819.45C184.972 818.368 187.407 816.774 189.392 814.67C191.436 812.565 193 809.889 194.082 806.642C195.225 803.395 195.796 799.607 195.796 795.277C195.796 791.789 195.405 788.632 194.623 785.806C193.841 782.98 192.669 780.575 191.105 778.59C189.602 776.546 187.708 774.982 185.423 773.9C183.138 772.757 180.492 772.186 177.485 772.186C175.561 772.186 173.847 772.276 172.344 772.457C170.901 772.577 169.668 772.727 168.646 772.908C167.503 773.148 166.511 773.389 165.669 773.629V820.262ZM165.669 826.486C165.669 831.898 165.73 836.648 165.85 840.737C165.97 844.826 166.12 848.374 166.301 851.381C166.541 854.327 166.812 856.823 167.113 858.867C167.413 860.912 167.774 862.565 168.195 863.828V864.189H147.359V863.828C147.78 862.565 148.141 860.942 148.441 858.957C148.802 856.973 149.073 854.538 149.253 851.651C149.494 848.705 149.674 845.217 149.794 841.188C149.915 837.159 149.975 832.439 149.975 827.027V804.297C149.975 798.885 149.915 794.195 149.794 790.226C149.674 786.197 149.494 782.739 149.253 779.853C149.073 776.907 148.802 774.441 148.441 772.457C148.141 770.472 147.78 768.849 147.359 767.586V767.225C148.682 767.285 150.005 767.345 151.328 767.406C152.47 767.466 153.673 767.526 154.936 767.586C156.259 767.586 157.491 767.586 158.634 767.586C160.558 767.586 163.384 767.406 167.113 767.045C170.901 766.684 175.351 766.504 180.462 766.504C185.152 766.504 189.512 767.135 193.541 768.398C197.57 769.6 201.027 771.404 203.914 773.81C206.86 776.215 209.145 779.162 210.769 782.649C212.452 786.077 213.294 790.045 213.294 794.555C213.294 799.847 212.272 804.537 210.228 808.626C208.183 812.655 205.387 816.053 201.839 818.819C198.351 821.525 194.232 823.569 189.482 824.952C184.731 826.335 179.68 827.027 174.328 827.027C171.502 827.027 168.616 826.847 165.669 826.486Z" fill="#251725"/>
<path d="M223.757 815.391C223.757 808.296 225.08 801.711 227.726 795.638C230.432 789.564 234.1 784.303 238.73 779.853C243.361 775.343 248.833 771.825 255.147 769.3C261.46 766.774 268.225 765.511 275.441 765.511C282.537 765.511 289.212 766.714 295.465 769.119C301.779 771.465 307.251 774.832 311.882 779.222C316.572 783.611 320.27 788.933 322.976 795.187C325.682 801.441 327.035 808.446 327.035 816.203C327.035 822.637 325.892 828.861 323.607 834.874C321.322 840.827 317.985 846.119 313.595 850.749C309.206 855.319 303.794 858.987 297.36 861.753C290.925 864.459 283.559 865.812 275.261 865.812C268.225 865.812 261.581 864.64 255.327 862.295C249.073 859.95 243.601 856.612 238.911 852.283C234.22 847.893 230.522 842.601 227.816 836.408C225.11 830.154 223.757 823.148 223.757 815.391ZM277.516 859.408C282.086 859.408 286.295 858.506 290.144 856.702C293.992 854.898 297.299 852.313 300.066 848.945C302.892 845.578 305.057 841.489 306.56 836.678C308.123 831.808 308.905 826.335 308.905 820.262C308.905 813.347 308.153 806.943 306.65 801.05C305.207 795.157 302.982 790.076 299.975 785.806C297.029 781.477 293.331 778.109 288.881 775.704C284.431 773.238 279.23 772.006 273.276 772.006C268.706 772.006 264.497 772.878 260.649 774.622C256.8 776.365 253.463 778.891 250.637 782.198C247.871 785.505 245.706 789.564 244.142 794.375C242.579 799.186 241.797 804.658 241.797 810.791C241.797 817.646 242.549 824.05 244.052 830.004C245.616 835.897 247.871 841.038 250.817 845.428C253.824 849.757 257.552 853.185 262.002 855.71C266.451 858.176 271.623 859.408 277.516 859.408Z" fill="#251725"/>
<path d="M426.885 844.075L419.849 860.851C418.106 861.633 416.121 862.355 413.896 863.016C411.732 863.618 409.477 864.129 407.131 864.55C404.786 864.971 402.381 865.271 399.916 865.452C397.51 865.692 395.225 865.812 393.06 865.812C385.484 865.812 378.448 864.7 371.954 862.475C365.52 860.25 359.957 857.003 355.267 852.734C350.577 848.404 346.909 843.112 344.263 836.859C341.617 830.605 340.294 823.449 340.294 815.391C340.294 808.296 341.677 801.711 344.443 795.638C347.209 789.564 351.028 784.303 355.899 779.853C360.769 775.343 366.512 771.825 373.126 769.3C379.801 766.774 387.017 765.511 394.774 765.511C396.518 765.511 398.352 765.602 400.276 765.782C402.261 765.902 404.215 766.113 406.139 766.413C408.063 766.714 409.928 767.075 411.732 767.496C413.536 767.857 415.219 768.247 416.783 768.668L423.548 784.904L422.465 785.536C420.842 783.551 418.887 781.717 416.602 780.033C414.377 778.35 411.912 776.937 409.206 775.794C406.56 774.591 403.764 773.659 400.818 772.998C397.871 772.336 394.864 772.006 391.798 772.006C386.807 772.006 382.237 772.878 378.087 774.622C373.998 776.365 370.481 778.921 367.534 782.288C364.648 785.596 362.393 789.655 360.769 794.465C359.146 799.276 358.334 804.718 358.334 810.791C358.334 817.646 359.116 824.05 360.679 830.004C362.243 835.897 364.588 841.038 367.715 845.428C370.841 849.757 374.75 853.185 379.44 855.71C384.131 858.176 389.603 859.408 395.857 859.408C398.863 859.408 401.81 859.048 404.696 858.326C407.643 857.544 410.409 856.462 412.994 855.079C415.64 853.696 418.045 852.042 420.21 850.118C422.375 848.133 424.239 845.939 425.803 843.533L426.885 844.075Z" fill="#251725"/>
<path d="M511.582 817.827C509.717 817.827 507.402 817.827 504.636 817.827C501.87 817.767 498.864 817.706 495.616 817.646C492.369 817.586 489.002 817.556 485.514 817.556C482.026 817.496 478.659 817.466 475.412 817.466C472.345 817.466 469.459 817.496 466.753 817.556C464.107 817.616 461.822 817.706 459.898 817.827V827.027C459.898 832.439 459.958 837.159 460.078 841.188C460.198 845.217 460.349 848.705 460.529 851.651C460.77 854.538 461.04 856.973 461.341 858.957C461.642 860.942 462.002 862.565 462.423 863.828V864.189H441.587V863.828C442.008 862.565 442.369 860.942 442.67 858.957C443.031 856.973 443.301 854.538 443.481 851.651C443.722 848.705 443.902 845.217 444.023 841.188C444.143 837.159 444.203 832.439 444.203 827.027V804.297C444.203 798.885 444.143 794.195 444.023 790.226C443.902 786.197 443.722 782.739 443.481 779.853C443.301 776.907 443.031 774.441 442.67 772.457C442.369 770.472 442.008 768.849 441.587 767.586V767.225H462.423V767.586C462.002 768.849 461.642 770.472 461.341 772.457C461.04 774.441 460.77 776.907 460.529 779.853C460.349 782.739 460.198 786.197 460.078 790.226C459.958 794.195 459.898 798.885 459.898 804.297V810.43H473.157C476.464 810.43 479.952 810.43 483.62 810.43C487.288 810.37 490.836 810.34 494.263 810.34C497.691 810.28 500.908 810.22 503.915 810.16C506.921 810.1 509.477 810.009 511.582 809.889V804.297C511.582 798.885 511.521 794.195 511.401 790.226C511.281 786.197 511.1 782.739 510.86 779.853C510.68 776.907 510.439 774.441 510.138 772.457C509.838 770.472 509.477 768.849 509.056 767.586V767.225H529.892V767.586C529.471 768.849 529.08 770.472 528.719 772.457C528.419 774.441 528.148 776.907 527.908 779.853C527.727 782.739 527.577 786.197 527.457 790.226C527.336 794.195 527.276 798.885 527.276 804.297V827.027C527.276 832.439 527.336 837.159 527.457 841.188C527.577 845.217 527.727 848.705 527.908 851.651C528.148 854.538 528.419 856.973 528.719 858.957C529.08 860.942 529.471 862.565 529.892 863.828V864.189H509.056V863.828C509.477 862.565 509.838 860.942 510.138 858.957C510.439 856.973 510.68 854.538 510.86 851.651C511.1 848.705 511.281 845.217 511.401 841.188C511.521 837.159 511.582 832.439 511.582 827.027V817.827Z" fill="#251725"/>
<path d="M112.499 739.823C112.499 745.98 109.543 751.46 103.632 756.263C97.8437 761.066 91.132 764.576 83.4966 766.793C75.9844 769.009 68.7184 770.118 61.6988 770.118C59.8515 770.118 58.4969 770.056 57.6348 769.933V763.652C57.8811 763.652 61.4525 763.098 68.349 761.99C75.2455 760.758 81.0336 758.665 85.7133 755.709C90.5162 752.753 92.9177 749.428 92.9177 745.734C92.9177 741.3 89.5926 739.084 82.9424 739.084C73.9524 739.084 65.4549 742.162 57.4501 748.32C49.4453 754.478 45.4428 760.943 45.4428 767.716C45.4428 774.49 49.63 778.862 58.0043 780.832C59.8515 781.325 61.0831 781.817 61.6988 782.31C62.3146 782.802 62.6225 783.664 62.6225 784.896C62.6225 786.127 62.0067 787.174 60.7752 788.036C59.6668 788.775 57.0191 789.884 52.8319 791.361C30.1721 799.12 18.8422 811.189 18.8422 827.568C18.8422 830.893 19.4579 833.725 20.6894 836.065C28.2017 826.46 37.9306 818.639 49.8763 812.605C61.822 806.571 73.3366 803.553 84.4202 803.553C90.2084 803.553 94.8265 804.846 98.2748 807.433C101.723 809.896 103.447 813.344 103.447 817.777C103.447 824.674 100.245 831.57 93.8413 838.467C87.4375 845.363 79.1247 850.967 68.9032 855.277C58.8048 859.71 48.7064 861.927 38.6079 861.927C28.6327 861.927 20.751 860.08 14.9629 856.385C14.8397 856.508 14.2856 857.432 13.3003 859.156C10.8373 864.082 8.74374 867.53 7.01963 869.501L0.923635 866.915C1.78569 863.466 4.3103 858.233 8.49744 851.213C2.83248 844.809 0 837.666 0 829.785C0 821.78 3.20193 814.206 9.6058 807.063C16.1328 799.797 25.1844 793.824 36.7607 789.145C30.9726 784.342 28.0785 779.354 28.0785 774.182C28.0785 767.162 31.773 760.019 39.1621 752.753C46.5512 745.364 55.5413 739.391 66.1323 734.835C76.8464 730.278 86.8833 728 96.2428 728C101.169 728 105.11 729.108 108.065 731.325C111.021 733.419 112.499 736.251 112.499 739.823ZM73.7061 814.637C66.4401 814.637 57.9427 817.408 48.2137 822.95C38.6079 828.492 30.7878 835.08 24.7534 842.715C29.6795 848.257 36.6375 851.028 45.6276 851.028C54.7408 851.028 63.6077 848.134 72.2283 842.346C80.972 836.435 85.3439 830.092 85.3439 823.319C85.3439 820.61 84.2971 818.516 82.2035 817.038C80.1099 815.437 77.2775 814.637 73.7061 814.637Z" fill="#251725"/>
<path d="M745.632 760.81C745.632 766.968 742.676 772.448 736.765 777.251C730.977 782.054 724.265 785.564 716.629 787.78C709.117 789.997 701.851 791.106 694.832 791.106C692.984 791.106 691.63 791.044 690.768 790.921V784.64C691.014 784.64 694.585 784.086 701.482 782.978C708.378 781.746 714.166 779.652 718.846 776.697C723.649 773.741 726.051 770.416 726.051 766.722C726.051 762.288 722.725 760.071 716.075 760.071C707.085 760.071 698.588 763.15 690.583 769.308C682.578 775.465 678.576 781.931 678.576 788.704C678.576 795.477 682.763 799.849 691.137 801.82C692.984 802.312 694.216 802.805 694.832 803.298C695.447 803.79 695.755 804.652 695.755 805.884C695.755 807.115 695.14 808.162 693.908 809.024C692.8 809.763 690.152 810.871 685.965 812.349C663.305 820.108 651.975 832.177 651.975 848.556C651.975 851.881 652.591 854.713 653.822 857.053C661.335 847.447 671.063 839.627 683.009 833.593C694.955 827.558 706.469 824.541 717.553 824.541C723.341 824.541 727.959 825.834 731.408 828.42C734.856 830.883 736.58 834.332 736.58 838.765C736.58 845.662 733.378 852.558 726.974 859.455C720.57 866.351 712.258 871.954 702.036 876.265C691.938 880.698 681.839 882.915 671.741 882.915C661.765 882.915 653.884 881.068 648.096 877.373C647.973 877.496 647.418 878.42 646.433 880.144C643.97 885.07 641.877 888.518 640.152 890.489L634.056 887.903C634.919 884.454 637.443 879.22 641.63 872.201C635.965 865.797 633.133 858.654 633.133 850.772C633.133 842.768 636.335 835.194 642.739 828.051C649.266 820.785 658.317 814.812 669.893 810.132C664.105 805.33 661.211 800.342 661.211 795.17C661.211 788.15 664.906 781.007 672.295 773.741C679.684 766.352 688.674 760.379 699.265 755.823C709.979 751.266 720.016 748.988 729.376 748.988C734.302 748.988 738.243 750.096 741.198 752.313C744.154 754.406 745.632 757.239 745.632 760.81ZM706.839 835.625C699.573 835.625 691.076 838.396 681.347 843.937C671.741 849.479 663.921 856.068 657.886 863.703C662.812 869.245 669.77 872.016 678.76 872.016C687.874 872.016 696.74 869.122 705.361 863.334C714.105 857.423 718.477 851.08 718.477 844.307C718.477 841.598 717.43 839.504 715.336 838.026C713.243 836.425 710.41 835.625 706.839 835.625Z" fill="#251725"/>
<path d="M283.087 128.591L646.862 -3.8147e-06L1010.64 128.591H283.087Z" fill="#251725"/>
<path d="M437.901 97.9671L645.506 24.5807C646.383 24.2705 647.34 24.2705 648.217 24.5807L855.822 97.9671C860.132 99.4907 859.038 105.868 854.466 105.868H439.256C434.685 105.868 433.59 99.4907 437.901 97.9671Z" fill="#251725"/>
<path d="M348.848 152.578H288.344C285.442 152.578 283.087 154.93 283.087 157.833V181.405C283.087 184.308 285.44 186.661 288.344 186.661C291.247 186.661 293.6 189.014 293.6 191.917V196.39C293.6 199.756 293.924 204.138 294.155 208.376C294.172 208.694 294.218 209.014 294.293 209.323C298.493 226.69 301.86 241.338 304.112 257.103C307.51 274.094 297.356 287.697 295.136 305.969C295.123 306.078 295.114 306.182 295.107 306.292C294.898 309.513 294.286 313.786 293.654 318.136C293.617 318.386 293.599 318.639 293.599 318.892V517.707C293.599 520.61 295.952 522.964 298.855 522.964H338.333C341.236 522.964 343.59 520.611 343.59 517.707V318.904C343.59 318.643 343.568 318.378 343.53 318.121C342.838 313.58 342.52 309.897 342.104 306.241C342.09 306.121 342.082 305.998 342.079 305.878C341.537 286.665 330.378 273.104 332.479 255.135C332.503 254.934 332.537 254.73 332.581 254.533C335.963 238.839 340.436 225.336 342.835 209.441C342.862 209.27 342.879 209.1 342.889 208.927C343.135 204.597 343.591 199.815 343.591 196.39V191.917C343.591 189.014 345.944 186.661 348.847 186.661C351.75 186.661 354.103 184.308 354.103 181.405V157.833C354.105 154.93 351.751 152.578 348.848 152.578Z" fill="#251725"/>
<path d="M462.463 152.578H401.96C399.057 152.578 396.703 154.93 396.703 157.833V181.405C396.703 184.308 399.056 186.661 401.96 186.661C404.863 186.661 407.217 189.014 407.217 191.917V196.39C407.217 199.756 407.541 204.138 407.771 208.376C407.788 208.694 407.835 209.014 407.91 209.323C412.109 226.69 415.477 241.338 417.729 257.103C421.127 274.094 410.973 287.697 408.753 305.969C408.739 306.078 408.73 306.182 408.723 306.292C408.514 309.513 407.903 313.786 407.27 318.136C407.234 318.386 407.216 318.639 407.216 318.892V517.707C407.216 520.61 409.569 522.964 412.472 522.964H451.95C454.852 522.964 457.206 520.611 457.206 517.707V318.904C457.206 318.643 457.185 318.378 457.146 318.121C456.454 313.58 456.136 309.897 455.72 306.241C455.707 306.121 455.699 305.998 455.695 305.878C455.153 286.665 443.994 273.104 446.096 255.135C446.12 254.934 446.154 254.73 446.197 254.533C449.579 238.839 454.053 225.336 456.452 209.441C456.478 209.27 456.495 209.1 456.505 208.927C456.752 204.597 457.208 199.815 457.208 196.39V191.917C457.208 189.014 459.561 186.661 462.463 186.661C465.366 186.661 467.719 184.308 467.719 181.405V157.833C467.72 154.93 465.366 152.578 462.463 152.578Z" fill="#251725"/>
<path d="M576.079 152.578H515.575C512.672 152.578 510.318 154.93 510.318 157.833V181.405C510.318 184.308 512.671 186.661 515.575 186.661C518.478 186.661 520.831 189.014 520.831 191.917V196.39C520.831 199.756 521.155 204.138 521.386 208.376C521.403 208.694 521.45 209.014 521.524 209.323C525.724 226.69 529.091 241.338 531.344 257.103C534.742 274.094 524.589 287.697 522.37 305.969C522.356 306.078 522.347 306.182 522.34 306.292C522.131 309.513 521.52 313.786 520.887 318.136C520.851 318.386 520.832 318.639 520.832 318.892V517.707C520.832 520.61 523.185 522.964 526.089 522.964H565.567C568.47 522.964 570.823 520.611 570.823 517.707V318.904C570.823 318.643 570.802 318.378 570.763 318.121C570.071 313.58 569.753 309.897 569.337 306.241C569.323 306.121 569.315 305.998 569.312 305.878C568.77 286.665 557.611 273.104 559.713 255.135C559.737 254.934 559.771 254.73 559.814 254.533C563.196 238.839 567.669 225.336 570.069 209.441C570.095 209.27 570.112 209.1 570.122 208.927C570.369 204.597 570.824 199.815 570.824 196.39V191.917C570.824 189.014 573.177 186.661 576.081 186.661C578.984 186.661 581.338 184.308 581.338 181.405V157.833C581.336 154.93 578.982 152.578 576.079 152.578Z" fill="#251725"/>
<path d="M778.149 152.578H717.646C714.743 152.578 712.389 154.93 712.389 157.833V181.405C712.389 184.308 714.742 186.661 717.646 186.661C720.549 186.661 722.901 189.014 722.901 191.917V196.39C722.901 199.756 723.225 204.138 723.456 208.376C723.473 208.694 723.521 209.014 723.596 209.323C727.795 226.69 731.162 241.338 733.414 257.103C736.813 274.094 726.659 287.697 724.44 305.969C724.426 306.078 724.417 306.182 724.41 306.292C724.201 309.513 723.59 313.786 722.957 318.136C722.921 318.386 722.903 318.639 722.903 318.892V517.707C722.903 520.61 725.256 522.964 728.16 522.964H767.638C770.54 522.964 772.893 520.611 772.893 517.707V318.904C772.893 318.643 772.872 318.378 772.833 318.121C772.141 313.58 771.823 309.897 771.407 306.241C771.394 306.121 771.386 305.998 771.382 305.878C770.84 286.665 759.681 273.104 761.783 255.135C761.807 254.934 761.841 254.73 761.884 254.533C765.266 238.839 769.739 225.336 772.139 209.441C772.165 209.27 772.182 209.1 772.192 208.927C772.439 204.597 772.895 199.815 772.895 196.39V191.917C772.895 189.014 775.248 186.661 778.152 186.661C781.054 186.661 783.407 184.308 783.407 181.405V157.833C783.405 154.93 781.052 152.578 778.149 152.578Z" fill="#251725"/>
<path d="M891.765 152.578H831.261C828.359 152.578 826.004 154.93 826.004 157.833V181.405C826.004 184.308 828.357 186.661 831.261 186.661C834.164 186.661 836.517 189.014 836.517 191.917V196.39C836.517 199.756 836.841 204.138 837.072 208.376C837.089 208.694 837.136 209.014 837.211 209.323C841.411 226.69 844.778 241.338 847.03 257.103C850.428 274.094 840.274 287.697 838.056 305.969C838.042 306.078 838.033 306.182 838.026 306.292C837.817 309.513 837.206 313.786 836.573 318.136C836.537 318.386 836.518 318.639 836.518 318.892V517.707C836.518 520.61 838.871 522.964 841.775 522.964H881.253C884.156 522.964 886.509 520.611 886.509 517.707V318.904C886.509 318.643 886.488 318.378 886.449 318.121C885.757 313.58 885.439 309.897 885.023 306.241C885.009 306.121 885.001 305.998 884.998 305.878C884.456 286.665 873.297 273.104 875.399 255.135C875.423 254.934 875.457 254.73 875.5 254.533C878.882 238.839 883.355 225.336 885.755 209.441C885.781 209.27 885.798 209.1 885.808 208.927C886.055 204.597 886.51 199.815 886.51 196.39V191.917C886.51 189.014 888.863 186.661 891.767 186.661C894.67 186.661 897.023 184.308 897.023 181.405V157.833C897.021 154.93 894.668 152.578 891.765 152.578Z" fill="#251725"/>
<path d="M1005.38 152.578H944.877C941.974 152.578 939.62 154.93 939.62 157.833V181.405C939.62 184.308 941.973 186.661 944.877 186.661C947.78 186.661 950.132 189.014 950.132 191.917V196.39C950.132 199.756 950.456 204.138 950.687 208.376C950.704 208.694 950.752 209.014 950.827 209.323C955.026 226.69 958.393 241.338 960.645 257.103C964.044 274.094 953.89 287.697 951.671 305.969C951.657 306.078 951.648 306.182 951.641 306.292C951.432 309.513 950.821 313.786 950.188 318.136C950.152 318.386 950.134 318.639 950.134 318.892V517.707C950.134 520.61 952.487 522.964 955.391 522.964H994.869C997.771 522.964 1000.12 520.611 1000.12 517.707V318.904C1000.12 318.643 1000.1 318.378 1000.06 318.121C999.372 313.58 999.054 309.897 998.638 306.241C998.625 306.121 998.617 305.998 998.613 305.878C998.071 286.665 986.912 273.104 989.014 255.135C989.038 254.934 989.072 254.73 989.115 254.533C992.497 238.839 996.97 225.336 999.37 209.441C999.396 209.27 999.413 209.1 999.423 208.927C999.67 204.597 1000.13 199.815 1000.13 196.39V191.917C1000.13 189.014 1002.48 186.661 1005.38 186.661C1008.29 186.661 1010.64 184.308 1010.64 181.405V157.833C1010.64 154.93 1008.28 152.578 1005.38 152.578Z" fill="#251725"/>
<path d="M1043.75 567.932H249.973C240.561 567.932 232.932 560.302 232.932 550.89C232.932 541.478 240.561 533.849 249.973 533.849H1043.75C1053.16 533.849 1060.79 541.478 1060.79 550.89C1060.79 560.302 1053.16 567.932 1043.75 567.932Z" fill="#251725"/>
<path d="M1092.68 617.352H201.041C191.629 617.352 184 609.723 184 600.311C184 590.899 191.629 583.27 201.041 583.27H1092.68C1102.09 583.27 1109.72 590.899 1109.72 600.311C1109.72 609.721 1102.1 617.352 1092.68 617.352Z" fill="#251725"/>
</svg>
