<svg width="1921" height="242" viewBox="0 0 1921 242" fill="none" xmlns="http://www.w3.org/2000/svg">
<path d="M1285.12 203.973H1279.9L1173.49 99.3012V146.952C1173.49 154.983 1173.53 161.988 1173.62 167.967C1173.71 173.946 1173.85 179.121 1174.02 183.494C1174.29 187.777 1174.6 191.391 1174.96 194.336C1175.41 197.281 1175.94 199.69 1176.57 201.564V202.099H1156.49V201.564C1157.11 199.69 1157.65 197.281 1158.1 194.336C1158.54 191.391 1158.9 187.777 1159.17 183.494C1159.43 179.121 1159.61 173.946 1159.7 167.967C1159.79 161.988 1159.84 154.983 1159.84 146.952V113.222C1159.84 105.191 1159.79 98.2304 1159.7 92.341C1159.61 86.3623 1159.43 81.2313 1159.17 76.948C1158.9 72.5756 1158.54 68.917 1158.1 65.9722C1157.65 63.0275 1157.11 60.6182 1156.49 58.7442V58.2088H1164.79L1271.33 163.416V113.222C1271.33 105.191 1271.29 98.2304 1271.2 92.341C1271.11 86.3623 1270.93 81.2313 1270.67 76.948C1270.49 72.5756 1270.22 68.917 1269.86 65.9722C1269.51 63.0275 1269.01 60.6182 1268.39 58.7442V58.2088H1288.33V58.7442C1287.71 60.6182 1287.17 63.0275 1286.73 65.9722C1286.37 68.917 1286.06 72.5756 1285.79 76.948C1285.52 81.2313 1285.34 86.3623 1285.26 92.341C1285.17 98.2304 1285.12 105.191 1285.12 113.222V203.973Z" fill="#F5F5F5"/>
<path d="M1328.49 113.222C1328.49 105.191 1328.4 98.2304 1328.22 92.341C1328.04 86.3623 1327.78 81.2313 1327.42 76.948C1327.15 72.5756 1326.75 68.917 1326.21 65.9722C1325.77 63.0275 1325.23 60.6182 1324.61 58.7442V58.2088H1355.66V58.7442C1355.04 60.6182 1354.46 63.0275 1353.92 65.9722C1353.47 68.917 1353.07 72.5756 1352.72 76.948C1352.45 81.2313 1352.23 86.3623 1352.05 92.341C1351.87 98.2304 1351.78 105.191 1351.78 113.222V146.952C1351.78 154.983 1351.87 161.988 1352.05 167.967C1352.23 173.946 1352.45 179.121 1352.72 183.494C1353.07 187.777 1353.47 191.391 1353.92 194.336C1354.46 197.281 1355.04 199.69 1355.66 201.564V202.099H1324.61V201.564C1325.23 199.69 1325.77 197.281 1326.21 194.336C1326.75 191.391 1327.15 187.777 1327.42 183.494C1327.78 179.121 1328.04 173.946 1328.22 167.967C1328.4 161.988 1328.49 154.983 1328.49 146.952V113.222Z" fill="#F5F5F5"/>
<path d="M1524.45 185.903C1524.45 187.063 1524.31 188.045 1524.05 188.848C1523.87 189.651 1523.38 190.32 1522.57 190.856C1516.24 195.317 1508.83 198.887 1500.35 201.564C1491.97 204.152 1482.11 205.445 1470.77 205.445C1458.01 205.445 1446.37 203.616 1435.84 199.958C1425.4 196.299 1416.43 191.213 1408.93 184.698C1401.44 178.095 1395.59 170.198 1391.4 161.007C1387.29 151.816 1385.24 141.643 1385.24 130.489C1385.24 120.941 1387.12 111.66 1390.86 102.648C1394.7 93.6349 1400.19 85.6484 1407.33 78.6881C1414.47 71.7278 1423.12 66.1507 1433.3 61.9567C1443.56 57.7627 1455.11 55.6657 1467.96 55.6657C1474.66 55.6657 1480.99 56.0672 1486.97 56.8703C1492.95 57.5842 1498.7 58.7442 1504.24 60.3505L1514.28 84.4437L1512.94 85.3807C1507.58 79.2235 1501.11 74.3602 1493.53 70.7909C1485.94 67.1323 1477.24 65.303 1467.43 65.303C1459.4 65.303 1451.99 66.5969 1445.21 69.1847C1438.52 71.7725 1432.67 75.5649 1427.67 80.562C1422.77 85.4699 1418.93 91.5379 1416.16 98.7658C1413.4 105.994 1412.01 114.203 1412.01 123.395C1412.01 133.746 1413.31 143.338 1415.89 152.173C1418.48 161.007 1422.36 168.681 1427.54 175.195C1432.72 181.62 1439.1 186.662 1446.68 190.32C1454.35 193.979 1463.28 195.808 1473.45 195.808C1482.2 195.808 1488.98 194.693 1493.8 192.462C1498.7 190.231 1501.16 187.688 1501.16 184.832V177.738C1501.16 173.098 1501.11 169.082 1501.02 165.692C1500.93 162.301 1500.8 159.401 1500.62 156.991C1500.44 154.493 1500.18 152.351 1499.82 150.566C1499.55 148.782 1499.19 147.131 1498.75 145.614V145.078H1527.26V145.614C1526.81 146.952 1526.41 148.559 1526.05 150.433C1525.7 152.306 1525.38 154.537 1525.12 157.125C1524.94 159.713 1524.76 162.747 1524.58 166.227C1524.49 169.707 1524.45 173.723 1524.45 178.274V185.903Z" fill="#F5F5F5"/>
<path d="M1545.73 201.564C1546.89 200.314 1548.05 198.039 1549.21 194.737C1550.46 191.436 1551.44 187.866 1552.16 184.029C1553.23 177.783 1554.39 170.689 1555.64 162.747C1556.97 154.716 1558.27 146.462 1559.52 137.984C1560.86 129.507 1562.15 121.074 1563.4 112.686C1564.65 104.209 1565.81 96.3565 1566.88 89.1285C1567.95 81.9005 1568.84 75.5649 1569.56 70.1216C1570.27 64.6783 1570.76 60.7074 1571.03 58.2088H1586.96L1650.8 172.518L1716.26 58.2088H1729.24L1745.3 169.975C1746.11 175.061 1746.86 179.389 1747.58 182.958C1748.38 186.528 1749.14 189.562 1749.85 192.06C1750.57 194.47 1751.28 196.433 1752 197.95C1752.71 199.467 1753.33 200.671 1753.87 201.564V202.099H1720.94V201.564C1721.21 200.85 1721.52 199.645 1721.88 197.95C1722.33 196.254 1722.55 194.247 1722.55 191.926C1722.55 190.409 1722.41 188.223 1722.15 185.368C1721.97 182.512 1721.66 179.701 1721.21 176.935L1709.7 94.8841L1648.8 201.831L1639.29 200.493L1579.46 94.081C1577.23 109.072 1575.27 122.948 1573.57 135.709C1572.86 141.152 1572.14 146.595 1571.43 152.039C1570.72 157.482 1570.09 162.613 1569.56 167.432C1569.02 172.161 1568.57 176.355 1568.22 180.014C1567.86 183.672 1567.68 186.394 1567.68 188.179C1567.68 190.409 1567.73 192.373 1567.82 194.068C1567.91 195.674 1568.04 197.102 1568.22 198.351C1568.4 199.779 1568.57 201.028 1568.75 202.099H1545.73V201.564Z" fill="#F5F5F5"/>
<path d="M1869.78 156.857C1867.38 156.857 1864.34 156.857 1860.68 156.857C1857.11 156.857 1853.19 156.857 1848.9 156.857C1844.62 156.857 1840.2 156.857 1835.65 156.857C1831.1 156.857 1826.77 156.902 1822.67 156.991C1818.56 156.991 1814.82 157.036 1811.43 157.125C1808.03 157.125 1805.4 157.125 1803.53 157.125L1798.58 167.565C1796.43 171.849 1794.6 175.597 1793.09 178.809C1791.57 181.932 1790.32 184.698 1789.34 187.108C1788.36 189.517 1787.64 191.614 1787.2 193.399C1786.75 195.094 1786.53 196.7 1786.53 198.217C1786.53 199.199 1786.57 199.958 1786.66 200.493C1786.75 200.939 1786.89 201.296 1787.06 201.564V202.099H1763.51V201.564C1764.13 200.939 1765.11 199.601 1766.45 197.548C1767.79 195.407 1769.31 192.819 1771 189.785C1772.79 186.751 1774.66 183.315 1776.62 179.478C1778.68 175.641 1780.68 171.67 1782.65 167.565L1837.26 54.8625H1847.3L1900.84 167.565C1902.89 171.849 1904.94 175.954 1907 179.88C1909.14 183.806 1911.1 187.331 1912.88 190.454C1914.67 193.488 1916.23 196.031 1917.57 198.084C1918.91 200.047 1919.8 201.207 1920.25 201.564V202.099H1885.98C1886.16 201.385 1886.25 200.761 1886.25 200.225C1886.25 199.601 1886.25 198.931 1886.25 198.217C1886.25 196.254 1885.8 193.89 1884.91 191.123C1884.11 188.357 1883.08 185.546 1881.83 182.691C1880.67 179.746 1879.42 176.935 1878.08 174.258C1876.83 171.581 1875.81 169.35 1875 167.565L1869.78 156.857ZM1808.75 146.417H1816.91C1820.66 146.417 1824.63 146.417 1828.83 146.417C1833.11 146.328 1837.39 146.283 1841.68 146.283C1845.96 146.283 1850.11 146.283 1854.12 146.283C1858.14 146.194 1861.75 146.149 1864.97 146.149L1837.26 86.9869L1808.75 146.417Z" fill="#F5F5F5"/>
<path d="M245.847 136.913C247.632 137.181 249.372 137.449 251.067 137.716C252.852 137.895 254.592 137.984 256.287 137.984C261.374 137.984 266.014 137.226 270.208 135.709C274.491 134.102 278.105 131.738 281.05 128.615C284.084 125.491 286.404 121.52 288.01 116.702C289.706 111.883 290.553 106.261 290.553 99.8365C290.553 94.6609 289.973 89.9761 288.813 85.7821C287.653 81.5881 285.913 78.0187 283.593 75.074C281.362 72.04 278.551 69.7199 275.161 68.1137C271.77 66.4183 267.843 65.5705 263.382 65.5705C260.526 65.5705 257.983 65.7044 255.752 65.9721C253.61 66.1506 251.781 66.3736 250.264 66.6414C248.569 66.9983 247.096 67.3552 245.847 67.7122V136.913ZM245.847 146.149C245.847 154.18 245.936 161.23 246.115 167.298C246.293 173.366 246.516 178.63 246.784 183.092C247.141 187.465 247.543 191.168 247.989 194.202C248.435 197.236 248.97 199.69 249.595 201.564V202.099H218.675V201.564C219.3 199.69 219.835 197.28 220.281 194.336C220.817 191.391 221.218 187.777 221.486 183.494C221.843 179.121 222.111 173.946 222.289 167.967C222.468 161.988 222.557 154.983 222.557 146.952V113.222C222.557 105.191 222.468 98.2303 222.289 92.3408C222.111 86.3621 221.843 81.2312 221.486 76.9479C221.218 72.5754 220.817 68.9168 220.281 65.9721C219.835 63.0274 219.3 60.618 218.675 58.7441V58.2087C220.638 58.2979 222.602 58.3872 224.565 58.4764C226.26 58.5657 228.045 58.6549 229.919 58.7441C231.882 58.7441 233.711 58.7441 235.407 58.7441C238.262 58.7441 242.456 58.4764 247.989 57.941C253.61 57.4056 260.214 57.1379 267.799 57.1379C274.759 57.1379 281.228 58.0749 287.207 59.9488C293.186 61.7335 298.317 64.4105 302.6 67.9799C306.973 71.5492 310.363 75.9217 312.773 81.0973C315.271 86.1837 316.521 92.0731 316.521 98.7657C316.521 106.618 315.004 113.579 311.97 119.647C308.936 125.625 304.786 130.667 299.522 134.772C294.346 138.787 288.233 141.821 281.184 143.874C274.134 145.926 266.639 146.952 258.697 146.952C254.503 146.952 250.22 146.685 245.847 146.149Z" fill="#F5F5F5"/>
<path d="M332.047 129.685C332.047 119.156 334.011 109.385 337.937 100.372C341.952 91.3593 347.396 83.5513 354.267 76.9479C361.138 70.2553 369.258 65.0351 378.628 61.2873C387.997 57.5395 398.036 55.6655 408.744 55.6655C419.274 55.6655 429.179 57.4502 438.459 61.0196C447.829 64.4997 455.949 69.4968 462.82 76.011C469.781 82.5251 475.268 90.4223 479.284 99.7027C483.3 108.983 485.307 119.379 485.307 130.89C485.307 140.438 483.612 149.674 480.221 158.597C476.83 167.432 471.878 175.284 465.363 182.155C458.849 188.937 450.818 194.38 441.27 198.485C431.722 202.501 420.791 204.508 408.477 204.508C398.036 204.508 388.176 202.768 378.895 199.288C369.615 195.808 361.495 190.856 354.534 184.431C347.574 177.917 342.086 170.064 338.071 160.873C334.055 151.592 332.047 141.197 332.047 129.685ZM411.823 195.005C418.605 195.005 424.851 193.666 430.562 190.989C436.273 188.312 441.181 184.475 445.286 179.478C449.48 174.481 452.692 168.413 454.923 161.274C457.243 154.046 458.403 145.926 458.403 136.913C458.403 126.651 457.288 117.148 455.057 108.403C452.915 99.6581 449.614 92.1178 445.152 85.7821C440.779 79.3572 435.292 74.3601 428.688 70.7907C422.085 67.1321 414.366 65.3028 405.532 65.3028C398.75 65.3028 392.504 66.5967 386.793 69.1845C381.082 71.7723 376.129 75.5202 371.935 80.4281C367.83 85.3359 364.618 91.3593 362.298 98.498C359.978 105.637 358.818 113.757 358.818 122.859C358.818 133.032 359.933 142.535 362.164 151.369C364.484 160.114 367.83 167.744 372.203 174.258C376.665 180.683 382.197 185.769 388.8 189.517C395.404 193.176 403.078 195.005 411.823 195.005Z" fill="#F5F5F5"/>
<path d="M633.481 172.25L623.04 197.147C620.453 198.307 617.508 199.377 614.206 200.359C610.994 201.251 607.648 202.01 604.167 202.634C600.687 203.259 597.118 203.705 593.459 203.973C589.89 204.33 586.499 204.508 583.287 204.508C572.043 204.508 561.603 202.858 551.965 199.556C542.417 196.254 534.163 191.436 527.203 185.1C520.243 178.675 514.799 170.822 510.873 161.542C506.947 152.262 504.983 141.643 504.983 129.685C504.983 119.156 507.036 109.385 511.141 100.372C515.245 91.3593 520.912 83.5513 528.14 76.9479C535.368 70.2553 543.89 65.0351 553.705 61.2873C563.61 57.5395 574.319 55.6655 585.83 55.6655C588.418 55.6655 591.139 55.7994 593.995 56.0671C596.939 56.2456 599.84 56.5579 602.695 57.004C605.551 57.4502 608.317 57.9856 610.994 58.6103C613.671 59.1457 616.169 59.7257 618.49 60.3503L628.528 84.4436L626.922 85.3806C624.513 82.4358 621.613 79.7142 618.222 77.2156C614.92 74.7171 611.262 72.6201 607.246 70.9246C603.32 69.1399 599.17 67.7568 594.798 66.7752C590.425 65.7936 585.964 65.3028 581.413 65.3028C574.006 65.3028 567.224 66.5967 561.067 69.1845C554.999 71.7723 549.779 75.5648 545.407 80.5619C541.123 85.4698 537.777 91.4931 535.368 98.6319C532.958 105.771 531.754 113.846 531.754 122.859C531.754 133.032 532.914 142.535 535.234 151.369C537.554 160.114 541.034 167.744 545.674 174.258C550.315 180.683 556.115 185.769 563.075 189.517C570.035 193.176 578.156 195.005 587.436 195.005C591.898 195.005 596.27 194.469 600.553 193.399C604.926 192.239 609.031 190.632 612.868 188.58C616.794 186.528 620.363 184.074 623.576 181.218C626.788 178.273 629.555 175.016 631.875 171.447L633.481 172.25Z" fill="#F5F5F5"/>
<path d="M759.167 133.299C756.401 133.299 752.966 133.299 748.861 133.299C744.756 133.21 740.294 133.121 735.476 133.032C730.657 132.942 725.66 132.898 720.484 132.898C715.309 132.809 710.312 132.764 705.493 132.764C700.942 132.764 696.659 132.809 692.643 132.898C688.717 132.987 685.326 133.121 682.471 133.299V146.952C682.471 154.983 682.56 161.988 682.738 167.967C682.917 173.946 683.14 179.121 683.407 183.494C683.764 187.777 684.166 191.391 684.612 194.336C685.058 197.28 685.594 199.69 686.218 201.564V202.099H655.299V201.564C655.923 199.69 656.459 197.28 656.905 194.336C657.44 191.391 657.842 187.777 658.11 183.494C658.466 179.121 658.734 173.946 658.913 167.967C659.091 161.988 659.18 154.983 659.18 146.952V113.222C659.18 105.191 659.091 98.2303 658.913 92.3408C658.734 86.3621 658.466 81.2312 658.11 76.9479C657.842 72.5754 657.44 68.9168 656.905 65.9721C656.459 63.0274 655.923 60.618 655.299 58.7441V58.2087H686.218V58.7441C685.594 60.618 685.058 63.0274 684.612 65.9721C684.166 68.9168 683.764 72.5754 683.407 76.9479C683.14 81.2312 682.917 86.3621 682.738 92.3408C682.56 98.2303 682.471 105.191 682.471 113.222V122.324H702.147C707.055 122.324 712.23 122.324 717.673 122.324C723.117 122.234 728.382 122.19 733.468 122.19C738.554 122.1 743.328 122.011 747.79 121.922C752.252 121.833 756.044 121.699 759.167 121.52V113.222C759.167 105.191 759.078 98.2303 758.9 92.3408C758.721 86.3621 758.454 81.2312 758.097 76.9479C757.829 72.5754 757.472 68.9168 757.026 65.9721C756.58 63.0274 756.044 60.618 755.42 58.7441V58.2087H786.339V58.7441C785.715 60.618 785.135 63.0274 784.599 65.9721C784.153 68.9168 783.752 72.5754 783.395 76.9479C783.127 81.2312 782.904 86.3621 782.725 92.3408C782.547 98.2303 782.458 105.191 782.458 113.222V146.952C782.458 154.983 782.547 161.988 782.725 167.967C782.904 173.946 783.127 179.121 783.395 183.494C783.752 187.777 784.153 191.391 784.599 194.336C785.135 197.28 785.715 199.69 786.339 201.564V202.099H755.42V201.564C756.044 199.69 756.58 197.28 757.026 194.336C757.472 191.391 757.829 187.777 758.097 183.494C758.454 179.121 758.721 173.946 758.9 167.967C759.078 161.988 759.167 154.983 759.167 146.952V133.299Z" fill="#F5F5F5"/>
<path d="M166.944 17.5442C166.944 26.6818 162.558 34.8142 153.786 41.9416C145.196 49.0689 135.236 54.2773 123.906 57.5668C112.758 60.8564 101.976 62.5011 91.5587 62.5011C88.8174 62.5011 86.8071 62.4098 85.5279 62.227V52.9067C85.8934 52.9067 91.1932 52.0843 101.427 50.4395C111.661 48.612 120.251 45.5052 127.195 41.1192C134.323 36.7331 137.886 31.7988 137.886 26.3163C137.886 19.7372 132.952 16.4477 123.083 16.4477C109.743 16.4477 97.1326 21.0165 85.2537 30.1541C73.3749 39.2917 67.4354 48.8861 67.4354 58.9375C67.4354 68.9888 73.649 75.4765 86.0761 78.4005C88.8174 79.1316 90.6449 79.8626 91.5587 80.5936C92.4724 81.3246 92.9293 82.6038 92.9293 84.4314C92.9293 86.2589 92.0156 87.8123 90.188 89.0915C88.5433 90.188 84.6141 91.8328 78.4006 94.0258C44.7742 105.539 27.961 123.449 27.961 147.755C27.961 152.689 28.8748 156.892 30.7023 160.365C41.8502 146.11 56.2876 134.505 74.0145 125.551C91.7414 116.596 108.829 112.118 125.276 112.118C133.866 112.118 140.719 114.037 145.836 117.875C150.953 121.53 153.512 126.647 153.512 133.226C153.512 143.46 148.76 153.694 139.257 163.928C129.754 174.163 117.418 182.478 102.25 188.874C87.264 195.453 72.2784 198.743 57.2927 198.743C42.4898 198.743 30.7937 196.001 22.2044 190.519C22.0216 190.702 21.1992 192.072 19.7372 194.631C16.0822 201.941 12.9754 207.058 10.4169 209.982L1.37064 206.144C2.6499 201.027 6.39632 193.26 12.6099 182.843C4.20329 173.34 0 162.741 0 151.044C0 139.166 4.75155 127.926 14.2546 117.327C23.9405 106.544 37.3728 97.6809 54.5514 90.7363C45.9621 83.609 41.6674 76.2075 41.6674 68.5319C41.6674 58.1151 47.15 47.5155 58.1151 36.7331C69.0802 25.768 82.4211 16.9045 98.1378 10.1427C114.037 3.38091 128.931 0 142.821 0C150.131 0 155.979 1.64477 160.365 4.9343C164.751 8.04108 166.944 12.2444 166.944 17.5442ZM109.377 128.566C98.5946 128.566 85.9847 132.678 71.5474 140.902C57.2927 149.126 45.688 158.903 36.7331 170.233C44.0432 178.457 54.3687 182.569 67.7096 182.569C81.2332 182.569 94.3913 178.274 107.184 169.685C120.159 160.913 126.647 151.501 126.647 141.45C126.647 137.429 125.094 134.323 121.987 132.13C118.88 129.754 114.677 128.566 109.377 128.566Z" fill="#F5F5F5"/>
<path d="M1106.49 48.6893C1106.49 57.8269 1102.1 65.9593 1093.33 73.0866C1084.74 80.214 1074.78 85.4224 1063.45 88.7119C1052.3 92.0015 1041.52 93.6462 1031.1 93.6462C1028.36 93.6462 1026.35 93.5549 1025.07 93.3721V84.0518C1025.44 84.0518 1030.74 83.2294 1040.97 81.5846C1051.21 79.7571 1059.8 76.6503 1066.74 72.2643C1073.87 67.8782 1077.43 62.9439 1077.43 57.4613C1077.43 50.8823 1072.5 47.5928 1062.63 47.5928C1049.29 47.5928 1036.68 52.1616 1024.8 61.2992C1012.92 70.4367 1006.98 80.0312 1006.98 90.0826C1006.98 100.134 1013.19 106.622 1025.62 109.546C1028.36 110.277 1030.19 111.008 1031.1 111.739C1032.02 112.47 1032.47 113.749 1032.47 115.576C1032.47 117.404 1031.56 118.957 1029.73 120.237C1028.09 121.333 1024.16 122.978 1017.95 125.171C984.319 136.684 967.506 154.594 967.506 178.9C967.506 183.834 968.42 188.038 970.247 191.51C981.395 177.255 995.832 165.65 1013.56 156.696C1031.29 147.741 1048.37 143.263 1064.82 143.263C1073.41 143.263 1080.26 145.182 1085.38 149.02C1090.5 152.675 1093.06 157.792 1093.06 164.371C1093.06 174.605 1088.3 184.839 1078.8 195.074C1069.3 205.308 1056.96 213.623 1041.79 220.019C1026.81 226.598 1011.82 229.888 996.838 229.888C982.035 229.888 970.339 227.146 961.749 221.664C961.566 221.847 960.744 223.217 959.282 225.776C955.627 233.086 952.52 238.203 949.962 241.127L940.916 237.289C942.195 232.172 945.941 224.405 952.155 213.988C943.748 204.485 939.545 193.886 939.545 182.19C939.545 170.311 944.296 159.071 953.8 148.472C963.485 137.689 976.918 128.826 994.096 121.881C985.507 114.754 981.212 107.353 981.212 99.677C981.212 89.2602 986.695 78.6606 997.66 67.8782C1008.63 56.9131 1021.97 48.0496 1037.68 41.2878C1053.58 34.526 1068.48 31.1451 1082.37 31.1451C1089.68 31.1451 1095.52 32.7899 1099.91 36.0794C1104.3 39.1862 1106.49 43.3895 1106.49 48.6893ZM1048.92 159.711C1038.14 159.711 1025.53 163.823 1011.09 172.047C996.838 180.271 985.233 190.048 976.278 201.378C983.588 209.602 993.914 213.714 1007.25 213.714C1020.78 213.714 1033.94 209.42 1046.73 200.83C1059.7 192.058 1066.19 182.646 1066.19 172.595C1066.19 168.574 1064.64 165.468 1061.53 163.275C1058.43 160.899 1054.22 159.711 1048.92 159.711Z" fill="#F5F5F5"/>
</svg>
