<svg width="926" height="618" viewBox="0 0 926 618" fill="none" xmlns="http://www.w3.org/2000/svg">
<path d="M99.0874 128.591L462.862 0L826.636 128.591H99.0874Z" fill="#F5F5F5"/>
<path d="M253.901 97.9671L461.506 24.5806C462.383 24.2705 463.34 24.2705 464.217 24.5806L671.822 97.9671C676.132 99.4907 675.038 105.868 670.466 105.868H255.256C250.685 105.868 249.59 99.4907 253.901 97.9671Z" fill="#F5F5F5"/>
<path d="M164.848 152.578H104.344C101.442 152.578 99.0874 154.93 99.0874 157.833V181.405C99.0874 184.308 101.44 186.661 104.344 186.661C107.247 186.661 109.6 189.014 109.6 191.917V196.39C109.6 199.756 109.924 204.138 110.155 208.376C110.172 208.694 110.218 209.014 110.293 209.323C114.493 226.69 117.86 241.338 120.112 257.103C123.51 274.094 113.356 287.697 111.136 305.969C111.123 306.078 111.114 306.182 111.107 306.292C110.898 309.513 110.286 313.786 109.654 318.136C109.617 318.386 109.599 318.639 109.599 318.892V517.707C109.599 520.61 111.952 522.964 114.855 522.964H154.333C157.236 522.964 159.59 520.611 159.59 517.707V318.904C159.59 318.643 159.568 318.378 159.53 318.121C158.838 313.58 158.52 309.897 158.104 306.241C158.09 306.121 158.082 305.998 158.079 305.878C157.537 286.665 146.378 273.104 148.479 255.135C148.503 254.934 148.537 254.73 148.581 254.533C151.963 238.839 156.436 225.336 158.835 209.441C158.862 209.27 158.879 209.1 158.889 208.927C159.135 204.597 159.591 199.815 159.591 196.39V191.917C159.591 189.014 161.944 186.661 164.847 186.661C167.75 186.661 170.103 184.308 170.103 181.405V157.833C170.105 154.93 167.751 152.578 164.848 152.578Z" fill="#F5F5F5"/>
<path d="M278.463 152.578H217.96C215.057 152.578 212.703 154.93 212.703 157.833V181.405C212.703 184.308 215.056 186.661 217.96 186.661C220.863 186.661 223.217 189.014 223.217 191.917V196.39C223.217 199.756 223.54 204.138 223.771 208.376C223.788 208.694 223.835 209.014 223.91 209.323C228.109 226.69 231.476 241.338 233.728 257.103C237.127 274.094 226.973 287.697 224.753 305.969C224.739 306.078 224.73 306.182 224.723 306.292C224.514 309.513 223.903 313.786 223.27 318.136C223.234 318.386 223.215 318.639 223.215 318.892V517.707C223.215 520.61 225.568 522.964 228.471 522.964H267.949C270.852 522.964 273.206 520.611 273.206 517.707V318.904C273.206 318.643 273.185 318.378 273.146 318.121C272.454 313.58 272.136 309.897 271.72 306.241C271.707 306.121 271.699 305.998 271.695 305.878C271.153 286.665 259.994 273.104 262.096 255.135C262.12 254.934 262.154 254.73 262.197 254.533C265.579 238.839 270.052 225.336 272.452 209.441C272.478 209.27 272.495 209.1 272.505 208.927C272.752 204.597 273.207 199.815 273.207 196.39V191.917C273.207 189.014 275.56 186.661 278.463 186.661C281.366 186.661 283.719 184.308 283.719 181.405V157.833C283.72 154.93 281.366 152.578 278.463 152.578Z" fill="#F5F5F5"/>
<path d="M392.079 152.578H331.575C328.672 152.578 326.318 154.93 326.318 157.833V181.405C326.318 184.308 328.671 186.661 331.575 186.661C334.478 186.661 336.831 189.014 336.831 191.917V196.39C336.831 199.756 337.155 204.138 337.386 208.376C337.403 208.694 337.45 209.014 337.524 209.323C341.724 226.69 345.091 241.338 347.344 257.103C350.742 274.094 340.589 287.697 338.37 305.969C338.356 306.078 338.347 306.182 338.34 306.292C338.131 309.513 337.52 313.786 336.887 318.136C336.851 318.386 336.832 318.639 336.832 318.892V517.707C336.832 520.61 339.185 522.964 342.089 522.964H381.567C384.47 522.964 386.823 520.611 386.823 517.707V318.904C386.823 318.643 386.802 318.378 386.763 318.121C386.071 313.58 385.753 309.897 385.337 306.241C385.323 306.121 385.315 305.998 385.312 305.878C384.77 286.665 373.611 273.104 375.713 255.135C375.737 254.934 375.771 254.73 375.814 254.533C379.196 238.839 383.669 225.336 386.069 209.441C386.095 209.27 386.112 209.1 386.122 208.927C386.369 204.597 386.824 199.815 386.824 196.39V191.917C386.824 189.014 389.177 186.661 392.081 186.661C394.984 186.661 397.338 184.308 397.338 181.405V157.833C397.336 154.93 394.982 152.578 392.079 152.578Z" fill="#F5F5F5"/>
<path d="M594.149 152.578H533.646C530.743 152.578 528.389 154.93 528.389 157.833V181.405C528.389 184.308 530.742 186.661 533.646 186.661C536.549 186.661 538.901 189.014 538.901 191.917V196.39C538.901 199.756 539.225 204.138 539.456 208.376C539.473 208.694 539.521 209.014 539.596 209.323C543.795 226.69 547.162 241.338 549.414 257.103C552.813 274.094 542.659 287.697 540.44 305.969C540.426 306.078 540.417 306.182 540.41 306.292C540.201 309.513 539.59 313.786 538.957 318.136C538.921 318.386 538.903 318.639 538.903 318.892V517.707C538.903 520.61 541.256 522.964 544.16 522.964H583.638C586.54 522.964 588.893 520.611 588.893 517.707V318.904C588.893 318.643 588.872 318.378 588.833 318.121C588.141 313.58 587.823 309.897 587.407 306.241C587.394 306.121 587.386 305.998 587.382 305.878C586.84 286.665 575.681 273.104 577.783 255.135C577.807 254.934 577.841 254.73 577.884 254.533C581.266 238.839 585.739 225.336 588.139 209.441C588.165 209.27 588.182 209.1 588.192 208.927C588.439 204.597 588.895 199.815 588.895 196.39V191.917C588.895 189.014 591.248 186.661 594.152 186.661C597.054 186.661 599.407 184.308 599.407 181.405V157.833C599.405 154.93 597.052 152.578 594.149 152.578Z" fill="#F5F5F5"/>
<path d="M707.765 152.578H647.261C644.359 152.578 642.004 154.93 642.004 157.833V181.405C642.004 184.308 644.357 186.661 647.261 186.661C650.164 186.661 652.517 189.014 652.517 191.917V196.39C652.517 199.756 652.841 204.138 653.072 208.376C653.089 208.694 653.136 209.014 653.211 209.323C657.411 226.69 660.778 241.338 663.03 257.103C666.428 274.094 656.274 287.697 654.056 305.969C654.042 306.078 654.033 306.182 654.026 306.292C653.817 309.513 653.206 313.786 652.573 318.136C652.537 318.386 652.518 318.639 652.518 318.892V517.707C652.518 520.61 654.871 522.964 657.775 522.964H697.253C700.156 522.964 702.509 520.611 702.509 517.707V318.904C702.509 318.643 702.488 318.378 702.449 318.121C701.757 313.58 701.439 309.897 701.023 306.241C701.009 306.121 701.001 305.998 700.998 305.878C700.456 286.665 689.297 273.104 691.399 255.135C691.423 254.934 691.457 254.73 691.5 254.533C694.882 238.839 699.355 225.336 701.755 209.441C701.781 209.27 701.798 209.1 701.808 208.927C702.055 204.597 702.51 199.815 702.51 196.39V191.917C702.51 189.014 704.863 186.661 707.767 186.661C710.67 186.661 713.023 184.308 713.023 181.405V157.833C713.021 154.93 710.668 152.578 707.765 152.578Z" fill="#F5F5F5"/>
<path d="M821.38 152.578H760.877C757.974 152.578 755.62 154.93 755.62 157.833V181.405C755.62 184.308 757.973 186.661 760.877 186.661C763.78 186.661 766.132 189.014 766.132 191.917V196.39C766.132 199.756 766.456 204.138 766.687 208.376C766.704 208.694 766.752 209.014 766.827 209.323C771.026 226.69 774.393 241.338 776.645 257.103C780.044 274.094 769.89 287.697 767.671 305.969C767.657 306.078 767.648 306.182 767.641 306.292C767.432 309.513 766.821 313.786 766.188 318.136C766.152 318.386 766.134 318.639 766.134 318.892V517.707C766.134 520.61 768.487 522.964 771.391 522.964H810.869C813.771 522.964 816.124 520.611 816.124 517.707V318.904C816.124 318.643 816.103 318.378 816.064 318.121C815.372 313.58 815.054 309.897 814.638 306.241C814.625 306.121 814.617 305.998 814.613 305.878C814.071 286.665 802.912 273.104 805.014 255.135C805.038 254.934 805.072 254.73 805.115 254.533C808.497 238.839 812.97 225.336 815.37 209.441C815.396 209.27 815.413 209.1 815.423 208.927C815.67 204.597 816.126 199.815 816.126 196.39V191.917C816.126 189.014 818.478 186.661 821.383 186.661C824.285 186.661 826.638 184.308 826.638 181.405V157.833C826.636 154.93 824.283 152.578 821.38 152.578Z" fill="#F5F5F5"/>
<path d="M859.75 567.932H65.9728C56.5609 567.932 48.9316 560.302 48.9316 550.89C48.9316 541.478 56.5609 533.849 65.9728 533.849H859.75C869.162 533.849 876.791 541.478 876.791 550.89C876.792 560.302 869.162 567.932 859.75 567.932Z" fill="#F5F5F5"/>
<path d="M908.683 617.352H17.0412C7.62928 617.352 0 609.723 0 600.311C0 590.899 7.62928 583.27 17.0412 583.27H908.682C918.094 583.27 925.723 590.899 925.723 600.311C925.724 609.721 918.095 617.352 908.683 617.352Z" fill="#F5F5F5"/>
</svg>
