<svg xmlns="http://www.w3.org/2000/svg" enable-background="new 0 0 512 512" fill="#D8B382" viewBox="0 0 512 512"><path fill="none" d="M318.8,104c-13.3-5.4-27.5-8.4-41.8-9.3c-93.8-6.4-133.8,56.4-133.8,56.4s-37.3,52.8-19.1,98.3
		c8.7,21.8,19.6,41.6,44.3,46.5c0.6,0.1,1.3,0.2,1.9,0c0.8-0.3,1.2-1.2,1.5-2c2.5-6.8,5.7-14.5,5-21.9c-0.1-1-0.3-2-0.6-3
		c-1.5-5.5-5.3-10.3-7.6-15.5c-3.9-8.7-6-18.2-6.3-27.7c-0.7-19.6,5.9-38.7,15.5-55.5c7.6-13.3,19.2-24.3,32.9-31.1
		c19.6-9.6,42.3-10.6,63.5-7.4c15.3,2.3,36.4,6.4,47.5,18.1c12.7,13.5,17.5,33.3,19,51.2c2.9,34.9-0.8,82.1-33.5,103
		c-9.6,6.1-20.7,9-32,9c-3.6,0-40.7-6.6-24-49.7c6.5-16.8,11.7-34.6,13.5-52.6c1.2-12.5,3.3-28.4-10.3-35c-4.4-2.1-9.3-2.9-14.2-3.2
		c-4.7-0.3-9.4-0.3-14,0.8c-14.9,3.6-22.4,19.1-25.7,32.8c-2.3,9.6-3.6,19.7-2.5,29.5c0.5,5,1.7,9.9,3.7,14.5c1.3,2.9,3.2,5.1,3,8.1
		c-0.4,7.3-3.8,15.5-5.5,22.6c-5.8,23.9-11.6,47.8-17.4,71.8c-1.4,5.6-2.7,11.3-4.1,16.9c0,0-9.1,57.4,2.7,74.6
		c0,0,17.3-6.4,38.2-58.3l16.4-61.9c0,0,27.3,49.2,99.2,10.9c46.1-24.5,60.8-82.2,58.5-130.8C390.7,159.8,359.6,120.6,318.8,104z"/><path fill="#020202" d="M256,16C123.4,16,16,123.5,16,256s107.4,240,240,240s240-107.5,240-240S388.6,16,256,16z M334.3,335
		c-71.9,38.2-99.2-10.9-99.2-10.9L218.7,386c-20.9,51.9-38.2,58.3-38.2,58.3c-11.8-17.3-2.7-74.6-2.7-74.6
		c1.4-5.6,2.7-11.3,4.1-16.9c5.8-23.9,11.6-47.8,17.4-71.8c1.7-7.1,5.1-15.3,5.5-22.6c0.2-3.1-1.7-5.2-3-8.1
		c-2-4.6-3.1-9.6-3.7-14.5c-1.1-9.9,0.1-19.9,2.5-29.5c3.3-13.6,10.8-29.2,25.7-32.8c4.6-1.1,9.3-1.1,14-0.8
		c4.9,0.4,9.8,1.1,14.2,3.2c13.6,6.5,11.5,22.5,10.3,35c-1.8,18-7,35.8-13.5,52.6c-16.7,43.1,20.3,49.7,24,49.7
		c11.3,0,22.4-2.9,32-9c32.7-20.9,36.4-68.2,33.5-103c-1.5-17.9-6.3-37.7-19-51.2c-11-11.7-32.2-15.8-47.5-18.1
		c-21.2-3.2-44-2.2-63.5,7.4c-13.8,6.7-25.3,17.7-32.9,31.1c-9.6,16.8-16.2,36-15.5,55.5c0.3,9.5,2.5,19,6.3,27.7
		c2.3,5.2,6.1,10,7.6,15.5c0.3,1,0.5,2,0.6,3c0.7,7.4-2.5,15.1-5,21.9c-0.3,0.8-0.7,1.7-1.5,2c-0.6,0.3-1.3,0.1-1.9,0
		c-24.7-4.9-35.6-24.7-44.3-46.5c-18.2-45.5,19.1-98.3,19.1-98.3s40.1-62.8,133.8-56.4c14.3,1,28.5,3.9,41.8,9.3
		c40.9,16.6,71.9,55.8,74,100.2C395.1,252.8,380.4,310.5,334.3,335z"/></svg>